v 1.225934 2.9986219 4.5733762
v 1.777686 2.9986219 4.2124028
v -1.42641 2.9986219 -0.68510199
v -1.9781621 2.9986219 -0.32412899
v -2.2985711 2.9986219 -0.81387901
v -1.746819 2.9986219 -1.174852
v -4.9509149 2.9986219 -6.0723572
v -5.502667 2.9986219 -5.7113838
v -5.8230772 2.9986219 -6.2011342
v -5.2713251 2.9986219 -6.562108
v -8.47542 2.9986219 -11.459612
v -9.0271721 2.9986219 -11.098639
vn 0 0.99999994 0
vn 0 0.99999994 0
vn 0 0.99999994 0
vn 0 0.99999994 0
vn 0 0.99999994 0
vn 0 0.99999994 0
vn 0 0.99999994 0
vn 0 0.99999994 0
vn 0 0.99999994 0
vn 0 0.99999994 0
vn 0 0.99999994 0
vn 0 0.99999994 0
s 1
f 1//1 2//2 3//3
f 4//4 1//1 3//3
f 5//5 6//6 7//7
f 8//8 5//5 7//7
f 9//9 10//10 11//11
f 12//12 9//9 11//11
