v 0.80165601 -0.876876 3.842968
v 0.80476302 -0.89446503 3.848388
v 0.89241898 -0.88236398 3.8774869
v 0.88598698 -0.86433297 3.870981
v 0.82543498 -0.91622698 3.8636351
v 0.83144599 -0.934219 3.87256
v 0.91459602 -0.917916 3.8964889
v 0.90927702 -0.89947802 3.8876009
v 0.84322703 -0.94973898 3.881485
v 0.85407299 -0.97280598 3.8936911
v 0.93970603 -0.95217103 3.918694
v 0.93388402 -0.93332303 3.9090919
v 0.86999798 -0.988801 3.9071381
v 0.87434798 -1.010687 3.9189391
v 0.96042401 -0.98566598 3.9439969
v 0.95527399 -0.96752 3.932934
v 0.89086097 -1.02702 3.937541
v 0.89543098 -1.0471621 3.9509261
v 0.97820199 -1.015974 3.9742401
v 0.97407001 -0.99921298 3.96122
v 0.91025299 -1.062603 3.9702361
v 0.91812098 -1.081447 3.98736
v 0.99607998 -1.04497 4.0051961
v 0.992033 -1.028525 3.9916761
v 0.92892402 -1.1004471 4.0024352
v 0.93727303 -1.115871 4.0175781
v 1.0148391 -1.0652829 4.024065
v 1.00727 -1.0504791 4.0100651
vn -0.3354947 0.21709657 0.91668546
vn -0.3354947 0.21709657 0.91668546
vn -0.3354947 0.21709657 0.91668546
vn -0.3354947 0.21709657 0.91668546
vn -0.32031652 0.33381718 0.88654572
vn -0.32031652 0.33381718 0.88654572
vn -0.32031652 0.33381718 0.88654572
vn -0.32031652 0.33381718 0.88654572
vn -0.33280784 0.32770771 0.88422078
vn -0.33280784 0.32770771 0.88422078
vn -0.33280784 0.32770771 0.88422078
vn -0.33280784 0.32770771 0.88422078
vn -0.35811269 0.3975141 0.84482992
vn -0.35811269 0.3975141 0.84482992
vn -0.35811269 0.3975141 0.84482992
vn -0.35811269 0.3975141 0.84482992
vn -0.39151302 0.47261575 0.78952628
vn -0.39151302 0.47261575 0.78952628
vn -0.39151302 0.47261575 0.78952628
vn -0.39151302 0.47261575 0.78952628
vn -0.41200039 0.51410043 0.75230068
vn -0.41200039 0.51410043 0.75230068
vn -0.41200039 0.51410043 0.75230068
vn -0.41200039 0.51410043 0.75230068
vn -0.40189067 0.51698798 0.75578249
vn -0.40189067 0.51698798 0.75578249
vn -0.40189067 0.51698798 0.75578249
vn -0.40189067 0.51698798 0.75578249
s 1
f 1//1 2//2 3//3
f 4//4 1//1 3//3
f 5//5 6//6 7//7
f 8//8 5//5 7//7
f 9//9 10//10 11//11
f 12//12 9//9 11//11
f 13//13 14//14 15//15
f 16//16 13//13 15//15
f 17//17 18//18 19//19
f 20//20 17//17 19//19
f 21//21 22//22 23//23
f 24//24 21//21 23//23
f 25//25 26//26 27//27
f 28//28 25//25 27//27
